# xmcd
#
# Track frame offsets:
#	182
#	16172
#	28812
#	41387
#	52250
#	67637
#	79902
#	94460
#	106187
#	117987
#	130557
#	146352
#	158067
#	171122
#
# Disc length: 2512
#
# Revision: 1
# Processed by: cddbd v1.5.1PL0 Copyright (c) Steve Scherf et al.
# Submitted via: dBpowerAMP V4.0
# Normalized: r0:DSETVAR1,TDELIM( - )
#
DISCID=ae09ce0e
DTITLE=Various Artist - Always On My Mind
DYEAR=1900
DGENRE=Country
TTITLE0=Willie Nelson - Always On My Mind
TTITLE1=Charlie Rich - A Very Special Love Song
TTITLE2=Roy Orbison - (Say) You're My Girl
TTITLE3=Kris Kristofferson - Help Me Make It Through The Night
TTITLE4=Dolly Parton - What Will Baby Be
TTITLE5=Tanya Tucker - You Are So Beautiful
TTITLE6=Lynn Anderson - A Little Bit More
TTITLE7=Patsy Cline - Walking After Midnight
TTITLE8=Tammy Wynette - I Don't Wanna Play House
TTITLE9=Johnny Cash And June Carter - Jackson
TTITLE10=Willie Nelson - Let It Be Me
TTITLE11=Johnny Cash - A Thing Called Love
TTITLE12=Lynn Anderson - Honey, Come Back
TTITLE13=Dr Hook - Sylvia's Mother
EXTD=Album Is mixed country love songs.
EXTT0=
EXTT1=
EXTT2=
EXTT3=
EXTT4=
EXTT5=
EXTT6=
EXTT7=
EXTT8=
EXTT9=
EXTT10=
EXTT11=
EXTT12=
EXTT13=
PLAYORDER=
